<svg width="49" height="54" viewBox="0 0 49 54" fill="none" xmlns="http://www.w3.org/2000/svg">
<path d="M24.8 29.8889C13.3 29.8889 10.425 20.2602 10.425 15.4444V3.88889L17.6125 9.66667L24.8 1L31.9875 9.66667L39.175 3.88889V15.4444C39.175 20.2602 36.3 29.8889 24.8 29.8889ZM24.8 29.8889V53M24.8 53H27.675M24.8 53H21.925M27.675 53C43.775 53 47.8 39.5176 47.8 32.7778C31.7 32.7778 27.675 46.2602 27.675 53ZM21.925 53C5.825 53 1.8 39.5176 1.8 32.7778C17.9 32.7778 21.925 46.2602 21.925 53Z" stroke="url(#paint0_linear_75_2728)" stroke-width="2" stroke-linecap="round" stroke-linejoin="round"/>
<defs>
<linearGradient id="paint0_linear_75_2728" x1="47.8" y1="2.3" x2="-3.81161" y2="47.9564" gradientUnits="userSpaceOnUse">
<stop stop-color="#EB6135"/>
<stop offset="1" stop-color="#EB6135" stop-opacity="0.7"/>
</linearGradient>
</defs>
</svg>
