<svg width="56" height="42" viewBox="0 0 56 42" fill="none" xmlns="http://www.w3.org/2000/svg">
<path d="M55.5033 10.6904L55.4347 10.2303L55.3634 10.2468C54.8762 7.97108 53.7539 5.87967 52.1263 4.21454C50.4987 2.54941 48.4323 1.37862 46.1663 0.837628C43.9003 0.296637 41.5272 0.407561 39.3217 1.15757C37.1161 1.90757 35.1683 3.266 33.7035 5.07568C32.2386 6.88536 31.3168 9.07231 31.0445 11.3835C30.7722 13.6947 31.1606 16.0357 32.1648 18.1356C33.169 20.2355 34.7479 22.0085 36.7189 23.2494C38.6899 24.4903 40.9724 25.1484 43.3022 25.1476C43.9136 25.1476 44.5004 25.0545 45.0844 24.9696C44.8952 25.605 44.7005 26.2513 44.388 26.8319C44.0754 27.6754 43.5874 28.4066 43.1021 29.1433C42.6963 29.9402 41.9807 30.4798 41.4542 31.1617C40.9031 31.8244 40.1519 32.2653 39.5569 32.8158C38.9729 33.3909 38.2079 33.6785 37.5992 34.0838C36.9631 34.448 36.4093 34.8506 35.8171 35.0423L34.3392 35.6503L33.0396 36.1898L34.3667 41.5L36.0035 41.1056C36.5272 40.9742 37.166 40.8208 37.8926 40.6373C38.6357 40.5004 39.428 40.1252 40.3109 39.7829C41.1801 39.3913 42.1918 39.1311 43.1295 38.5039C44.0727 37.9069 45.1612 37.4085 46.1208 36.6088C47.0503 35.7845 48.1717 35.0697 48.9997 34.0235C49.9045 33.0431 50.7983 32.0134 51.492 30.8413C52.2953 29.7239 52.841 28.497 53.4167 27.2838C53.9377 26.0706 54.3572 24.83 54.6999 23.625C55.3497 21.2095 55.6404 18.9145 55.7528 16.9509C55.846 14.9846 55.7912 13.3496 55.676 12.1666C55.6375 11.6725 55.5798 11.1801 55.5033 10.6904ZM25.3434 10.6904L25.2748 10.2303L25.2035 10.2468C24.7163 7.97108 23.594 5.87967 21.9664 4.21454C20.3388 2.54941 18.2724 1.37862 16.0064 0.837628C13.7404 0.296637 11.3673 0.407561 9.16176 1.15757C6.95622 1.90757 5.00836 3.266 3.54355 5.07568C2.07874 6.88536 1.15686 9.07231 0.884563 11.3835C0.612269 13.6947 1.00069 16.0357 2.0049 18.1356C3.0091 20.2355 4.58804 22.0085 6.55901 23.2494C8.52999 24.4903 10.8125 25.1484 13.1423 25.1476C13.7537 25.1476 14.3405 25.0545 14.9245 24.9696C14.7353 25.605 14.5406 26.2513 14.2281 26.8319C13.9155 27.6754 13.4275 28.4066 12.9422 29.1433C12.5364 29.9402 11.8208 30.4798 11.2943 31.1617C10.7432 31.8244 9.99196 32.2653 9.39699 32.8158C8.81299 33.3909 8.04802 33.6785 7.43934 34.0838C6.80324 34.448 6.24939 34.8506 5.65716 35.0423L4.17933 35.6503C3.35404 35.9871 2.88245 36.1843 2.88245 36.1843L4.20949 41.4945L5.84635 41.1002C6.37003 40.9687 7.00888 40.8153 7.73545 40.6318C8.47848 40.4949 9.27087 40.1197 10.1537 39.7774C11.0229 39.3858 12.0346 39.1256 12.9723 38.4985C13.9155 37.9014 15.004 37.403 15.9636 36.6033C16.8931 35.779 18.0145 35.0642 18.8425 34.0181C19.7473 33.0376 20.6412 32.0079 21.3348 30.8358C22.1382 29.7184 22.6838 28.4915 23.2596 27.2783C23.7805 26.0651 24.2 24.8245 24.5427 23.6195C25.1926 21.204 25.4832 18.9091 25.5956 16.9455C25.6888 14.9791 25.634 13.3442 25.5188 12.1611C25.4779 11.6689 25.4194 11.1784 25.3434 10.6904Z" fill="url(#paint0_linear_48_918)"/>
<defs>
<linearGradient id="paint0_linear_48_918" x1="55.8" y1="1.525" x2="16.5076" y2="54.2343" gradientUnits="userSpaceOnUse">
<stop stop-color="#EB6135"/>
<stop offset="1" stop-color="#EB6135" stop-opacity="0.7"/>
</linearGradient>
</defs>
</svg>
