<svg width="40" height="54" viewBox="0 0 40 54" fill="none" xmlns="http://www.w3.org/2000/svg">
<path d="M19.9999 8.8C19.9999 7.25731 20.4574 5.74926 21.3144 4.46656C22.1715 3.18385 23.3897 2.18411 24.815 1.59374C26.2402 1.00338 27.8086 0.848914 29.3216 1.14988C30.8347 1.45084 32.2245 2.19372 33.3153 3.28457C34.4062 4.37542 35.1491 5.76525 35.45 7.2783C35.751 8.79135 35.5965 10.3597 35.0062 11.7849C34.4158 13.2102 33.4161 14.4284 32.1333 15.2855C30.8506 16.1425 29.3426 16.6 27.7999 16.6M19.9999 8.8C19.9999 7.25731 19.5424 5.74926 18.6854 4.46656C17.8283 3.18385 16.6101 2.18411 15.1848 1.59374C13.7596 1.00338 12.1913 0.848914 10.6782 1.14988C9.16515 1.45084 7.77532 2.19372 6.68447 3.28457C5.59362 4.37542 4.85075 5.76525 4.54978 7.2783C4.24882 8.79135 4.40328 10.3597 4.99365 11.7849C5.58401 13.2102 6.58375 14.4284 7.86646 15.2855C9.14916 16.1425 10.6572 16.6 12.1999 16.6M19.9999 8.8V11.4M27.7999 16.6C29.3426 16.6 30.8506 17.0575 32.1333 17.9145C33.4161 18.7716 34.4158 19.9898 35.0062 21.4151C35.5965 22.8403 35.751 24.4087 35.45 25.9217C35.1491 27.4348 34.4062 28.8246 33.3153 29.9154C32.2245 31.0063 30.8347 31.7492 29.3216 32.0501C27.8086 32.3511 26.2402 32.1966 24.815 31.6063C23.3897 31.0159 22.1715 30.0162 21.3144 28.7334C20.4574 27.4507 19.9999 25.9427 19.9999 24.4M27.7999 16.6H25.1999M12.1999 16.6C10.6572 16.6 9.14916 17.0575 7.86646 17.9145C6.58375 18.7716 5.58401 19.9898 4.99365 21.4151C4.40328 22.8403 4.24882 24.4087 4.54978 25.9217C4.85075 27.4348 5.59362 28.8246 6.68447 29.9154C7.77532 31.0063 9.16515 31.7492 10.6782 32.0501C12.1913 32.3511 13.7596 32.1966 15.1848 31.6063C16.6101 31.0159 17.8283 30.0162 18.6854 28.7334C19.5424 27.4507 19.9999 25.9427 19.9999 24.4M12.1999 16.6H14.7999M19.9999 24.4V21.8" stroke="url(#paint0_linear_75_2729)" stroke-width="2" stroke-linecap="round" stroke-linejoin="round"/>
<path d="M20 21.8C22.8719 21.8 25.2 19.4719 25.2 16.6C25.2 13.7281 22.8719 11.4 20 11.4C17.1281 11.4 14.8 13.7281 14.8 16.6C14.8 19.4719 17.1281 21.8 20 21.8Z" stroke="url(#paint1_linear_75_2729)" stroke-width="2" stroke-linecap="round" stroke-linejoin="round"/>
<path d="M20 21.8V53.0001M20 53.0001C30.92 53.0001 38.2 48.6659 38.2 40C27.28 40 20 44.3343 20 53.0001ZM20 53.0001C9.07999 53.0001 1.79999 48.6659 1.79999 40C12.72 40 20 44.3343 20 53.0001Z" stroke="url(#paint2_linear_75_2729)" stroke-width="2" stroke-linecap="round" stroke-linejoin="round"/>
<defs>
<linearGradient id="paint0_linear_75_2729" x1="35.5999" y1="1.78" x2="4.3999" y2="32.98" gradientUnits="userSpaceOnUse">
<stop stop-color="#EB6135"/>
<stop offset="1" stop-color="#EB6135" stop-opacity="0.7"/>
</linearGradient>
<linearGradient id="paint1_linear_75_2729" x1="25.2" y1="11.66" x2="14.8" y2="22.06" gradientUnits="userSpaceOnUse">
<stop stop-color="#EB6135"/>
<stop offset="1" stop-color="#EB6135" stop-opacity="0.7"/>
</linearGradient>
<linearGradient id="paint2_linear_75_2729" x1="38.2" y1="22.5801" x2="7.36705" y2="58.5518" gradientUnits="userSpaceOnUse">
<stop stop-color="#EB6135"/>
<stop offset="1" stop-color="#EB6135" stop-opacity="0.7"/>
</linearGradient>
</defs>
</svg>
