<svg width="74" height="54" viewBox="0 0 74 54" fill="none" xmlns="http://www.w3.org/2000/svg">
<path d="M73.217 27.827C72.9418 27.336 72.5731 26.9055 72.1322 26.5605C71.6914 26.2156 71.1874 25.9631 70.6495 25.8178C68.2095 25.1847 65.6819 24.9724 63.1726 25.19C64.6172 18.7134 63.6737 13.6025 62.724 10.6233C62.3926 9.5708 61.6869 8.6813 60.7444 8.12818C59.8019 7.57507 58.6902 7.39798 57.626 7.63144C54.323 8.38328 51.196 9.78125 48.4199 11.7472C46.488 7.48198 43.567 3.75502 39.9068 0.884925C39.1557 0.310621 38.2409 0 37.3005 0C36.3602 0 35.4453 0.310621 34.6943 0.884925C31.036 3.75628 28.1163 7.48297 26.1842 11.7472C23.4074 9.78053 20.2793 8.38251 16.975 7.63144C15.9109 7.39826 14.7993 7.57589 13.8572 8.12966C12.9152 8.68343 12.2103 9.5736 11.8801 10.6264C10.9304 13.6057 9.98694 18.7166 11.4316 25.1931C8.92224 24.9756 6.39471 25.1878 3.95472 25.821C3.4168 25.9662 2.91274 26.2187 2.47193 26.5636C2.03111 26.9086 1.66236 27.3391 1.38716 27.8302C1.09794 28.3348 0.910679 28.8929 0.836321 29.4718C0.761962 30.0507 0.801994 30.6388 0.954077 31.2019C1.97801 35.057 5.13023 42.3843 14.6952 48.1953C24.2601 54.0063 32.7516 54 37.3021 54C41.8525 54 50.3317 54 59.9028 48.1953C69.4739 42.3906 72.62 35.057 73.6439 31.1987C73.7969 30.6361 73.838 30.0482 73.7647 29.4693C73.6914 28.8904 73.5052 28.3321 73.217 27.827ZM49.8244 15.3543C52.3713 13.4052 55.2957 12.0251 58.4056 11.3045C58.5708 11.2703 58.7426 11.2995 58.8877 11.3865C59.0329 11.4735 59.1411 11.6121 59.1913 11.7754C60.4101 15.6117 61.6073 23.5481 55.9154 33.5941C53.6305 37.5565 50.702 41.0985 47.2537 44.0702C49.6295 39.8728 51.5319 34.2 51.5319 26.7408C51.5608 22.8775 50.9845 19.034 49.8244 15.3543ZM15.4129 11.7848C15.4612 11.6198 15.5686 11.479 15.714 11.3901C15.8594 11.3013 16.0322 11.2707 16.1986 11.3045C19.3084 12.0251 22.2329 13.4052 24.7798 15.3543C23.6197 19.034 23.0433 22.8775 23.0722 26.7408C23.0722 34.2 24.9747 39.8791 27.3443 44.0607C23.8952 41.0898 20.9666 37.5477 18.6826 33.5846C12.9969 23.5481 14.194 15.6117 15.4129 11.7848ZM16.6007 44.9586C8.15562 39.8383 5.41792 33.525 4.53629 30.2035C4.51317 30.1192 4.50701 30.031 4.51817 29.9441C4.52933 29.8573 4.55758 29.7736 4.60125 29.6981C4.66842 29.5769 4.77932 29.4868 4.9106 29.447C7.41067 28.8165 10.0101 28.7022 12.5545 29.111C13.3394 31.3167 14.3156 33.4472 15.4716 35.4777C18.6454 41.036 22.9733 45.8267 28.1548 49.517C24.0699 48.6965 20.159 47.1536 16.6007 44.9586ZM37.3021 49.8749C34.617 47.9284 26.7844 41.0218 26.7844 26.7408C26.7844 13.1285 33.8807 6.22814 36.9309 3.89245C37.038 3.81093 37.1682 3.76687 37.3021 3.76687C37.436 3.76687 37.5662 3.81093 37.6733 3.89245C40.7234 6.22814 47.8198 13.1285 47.8198 26.7408C47.8198 41.1097 40.0274 47.9316 37.3021 49.8749ZM70.0617 30.2161C69.1801 33.525 66.4424 39.8383 57.9972 44.9712C54.435 47.1617 50.521 48.6993 46.4339 49.5138C51.6154 45.8235 55.9433 41.0329 59.1171 35.4746C60.2783 33.4457 61.2597 31.3161 62.0497 29.111C64.5969 28.7055 67.1985 28.824 69.6998 29.4595C69.831 29.4994 69.9419 29.5894 70.0091 29.7107C70.0517 29.7866 70.0789 29.8705 70.089 29.9573C70.0991 30.0442 70.0919 30.1321 70.0679 30.2161H70.0617Z" fill="url(#paint0_linear_75_2727)"/>
<defs>
<linearGradient id="paint0_linear_75_2727" x1="73.8" y1="1.35" x2="22.1643" y2="71.1538" gradientUnits="userSpaceOnUse">
<stop stop-color="#EB6135"/>
<stop offset="1" stop-color="#EB6135" stop-opacity="0.7"/>
</linearGradient>
</defs>
</svg>
