<svg width="55" height="40" viewBox="0 0 55 40" fill="none" xmlns="http://www.w3.org/2000/svg">
<path d="M13.0734 15.9519C12.4731 15.9519 11.897 16.0427 11.3236 16.1256C11.5093 15.5057 11.7005 14.8751 12.0074 14.3086C12.3142 13.4856 12.7934 12.7722 13.2699 12.0534C13.6683 11.2759 14.3709 10.7495 14.8878 10.0842C15.4289 9.43754 16.1665 9.00735 16.7506 8.47027C17.324 7.90915 18.0751 7.62859 18.6727 7.23313C19.2973 6.87775 19.841 6.48497 20.4225 6.29793L21.8735 5.70474L23.1495 5.17836L21.8439 0L20.2368 0.384768C19.7226 0.513025 19.0954 0.662657 18.382 0.841682C17.6525 0.975283 16.8745 1.34135 16.0077 1.67535C15.1516 2.05478 14.1609 2.31129 13.2403 2.92051C12.3142 3.50301 11.2455 3.98931 10.3033 4.76954C9.39075 5.57381 8.28972 6.27121 7.47674 7.29459C6.58839 8.25117 5.7108 9.25584 5.02973 10.3995C4.24097 11.4896 3.70527 12.6867 3.13995 13.8704C2.62847 15.0541 2.2166 16.2645 1.8801 17.4402C1.2421 19.7969 0.95675 22.0361 0.846379 23.9519C0.754851 25.8704 0.808691 27.4656 0.921754 28.6199C0.962134 29.165 1.03751 29.6941 1.09135 30.0601L1.15865 30.509L1.22864 30.493C1.70744 32.713 2.80965 34.753 4.40778 36.3772C6.0059 38.0014 8.03463 39.1433 10.2593 39.6709C12.4839 40.1984 14.8136 40.09 16.9788 39.3583C19.144 38.6265 21.0562 37.3013 22.4943 35.5358C23.9324 33.7704 24.8375 31.6369 25.105 29.3822C25.3725 27.1275 24.9914 24.8437 24.0059 22.795C23.0204 20.7463 21.4706 19.0163 19.5359 17.8053C17.6012 16.5943 15.3606 15.9518 13.0734 15.9519ZM42.6852 15.9519C42.0849 15.9519 41.5088 16.0427 40.9355 16.1256C41.1212 15.5057 41.3123 14.8751 41.6192 14.3086C41.9261 13.4856 42.4053 12.7722 42.8818 12.0534C43.2802 11.2759 43.9828 10.7495 44.4996 10.0842C45.0407 9.43754 45.7783 9.00735 46.3625 8.47027C46.9359 7.90915 47.687 7.62859 48.2846 7.23313C48.9091 6.87775 49.4529 6.48497 50.0344 6.29793L51.4853 5.70474L52.7614 5.17836L51.4557 0L49.8486 0.384768C49.3345 0.513025 48.7072 0.662657 47.9938 0.841682C47.2643 0.975283 46.4863 1.34135 45.6195 1.67535C44.7662 2.05745 43.7728 2.31129 42.8521 2.92318C41.9261 3.50568 40.8574 3.99198 39.9152 4.77221C39.0026 5.57649 37.9016 6.27388 37.0886 7.29459C36.2002 8.25117 35.3227 9.25584 34.6416 10.3995C33.8528 11.4896 33.3171 12.6867 32.7518 13.8704C32.2403 15.0541 31.8285 16.2645 31.492 17.4402C30.854 19.7969 30.5686 22.0361 30.4582 23.9519C30.3667 25.8704 30.4206 27.4656 30.5336 28.6199C30.574 29.165 30.6494 29.6941 30.7032 30.0601L30.7705 30.509L30.8405 30.493C31.3193 32.713 32.4215 34.753 34.0196 36.3772C35.6178 38.0014 37.6465 39.1433 39.8711 39.6709C42.0958 40.1984 44.4255 40.09 46.5907 39.3583C48.7558 38.6265 50.6681 37.3013 52.1061 35.5358C53.5442 33.7704 54.4494 31.6369 54.7169 29.3822C54.9844 27.1275 54.6033 24.8437 53.6178 22.795C52.6322 20.7463 51.0825 19.0163 49.1478 17.8053C47.2131 16.5943 44.9725 15.9518 42.6852 15.9519Z" fill="url(#paint0_linear_48_916)"/>
<defs>
<linearGradient id="paint0_linear_48_916" x1="54.8" y1="1" x2="16.5361" y2="52.6563" gradientUnits="userSpaceOnUse">
<stop stop-color="#EB6135"/>
<stop offset="1" stop-color="#EB6135" stop-opacity="0.7"/>
</linearGradient>
</defs>
</svg>
